<svg width="290" height="217" viewBox="0 0 290 217" fill="none" xmlns="http://www.w3.org/2000/svg">
<linearGradient id="grad1" x1="0%" y1="0%" x2="100%" y2="0%" gradientTransform="rotate(90)">
      <stop offset="0%" style="stop-color:rgb(3, 1, 112);stop-opacity:1" />
      <stop offset="100%" style="stop-color:rgb(189,109,233);stop-opacity:1" />
    </linearGradient>
<path d="M220.895 1.13045C252.093 5.06345 289.895 42.6304 289.895 42.6304V195.13C259.728 202.297 264.795 202.137 247.895 207.13C197.693 221.964 142.339 216.833 116.839 212C91.3392 207.167 51.4944 201.499 28.8392 188C10.6602 177.168 -3.67697 170.495 0.839191 152.5C4.54597 137.73 11.8392 134 33.8392 123C55.8392 112 58.3392 114 79.8392 103.5C79.8392 103.5 98.7646 92.5245 107.839 80C121.484 61.1678 122.149 46.7444 137.895 29.6304C161.1 4.41033 186.893 -3.1561 220.895 1.13045Z" fill="url(#grad1)"/>
</svg>
