<svg width="104" height="104" viewBox="0 0 104 104" fill="none" xmlns="http://www.w3.org/2000/svg">
<rect x="13.5" y="20.8985" width="9.16667" height="4.58333" transform="rotate(-45 13.5 20.8985)" fill="#F0F0F0"/>
<rect x="84.0834" y="14.4167" width="9.16667" height="4.58333" transform="rotate(45 84.0834 14.4167)" fill="#F0F0F0"/>
<circle cx="52" cy="52" r="45.8333" fill="#424040"/>
<circle cx="52" cy="52" r="36.6667" fill="#F0F0F0"/>
<path d="M30.3965 49.8457C29.4334 49.8457 28.6131 49.5836 27.9355 49.0594C27.258 48.531 26.7402 47.7661 26.3823 46.7647C26.0243 45.759 25.8453 44.5445 25.8453 43.1212C25.8453 41.7065 26.0243 40.4984 26.3823 39.4969C26.7445 38.4913 27.2644 37.7242 27.9419 37.1958C28.6237 36.6631 29.4419 36.3968 30.3965 36.3968C31.351 36.3968 32.1671 36.6631 32.8446 37.1958C33.5264 37.7242 34.0463 38.4913 34.4043 39.4969C34.7665 40.4984 34.9476 41.7065 34.9476 43.1212C34.9476 44.5445 34.7686 45.759 34.4107 46.7647C34.0527 47.7661 33.535 48.531 32.8574 49.0594C32.1799 49.5836 31.3595 49.8457 30.3965 49.8457ZM30.3965 48.4394C31.351 48.4394 32.0925 47.9792 32.6209 47.0587C33.1493 46.1383 33.4135 44.8258 33.4135 43.1212C33.4135 41.9877 33.2921 41.0225 33.0492 40.2256C32.8105 39.4288 32.4654 38.8215 32.0137 38.4039C31.5662 37.9863 31.0272 37.7775 30.3965 37.7775C29.4505 37.7775 28.7111 38.2441 28.1784 39.1773C27.6458 40.1063 27.3794 41.4209 27.3794 43.1212C27.3794 44.2547 27.4987 45.2178 27.7374 46.0104C27.976 46.803 28.3191 47.406 28.7665 47.8194C29.2182 48.2327 29.7615 48.4394 30.3965 48.4394ZM38.5016 47.992C38.1862 47.992 37.9157 47.879 37.6898 47.6532C37.4639 47.4273 37.351 47.1567 37.351 46.8414C37.351 46.5261 37.4639 46.2555 37.6898 46.0296C37.9157 45.8038 38.1862 45.6908 38.5016 45.6908C38.8169 45.6908 39.0875 45.8038 39.3134 46.0296C39.5392 46.2555 39.6522 46.5261 39.6522 46.8414C39.6522 47.0502 39.5989 47.242 39.4924 47.4167C39.3901 47.5914 39.2516 47.732 39.0769 47.8386C38.9064 47.9408 38.7147 47.992 38.5016 47.992ZM38.5016 41.3698C38.1862 41.3698 37.9157 41.2569 37.6898 41.031C37.4639 40.8052 37.351 40.5346 37.351 40.2192C37.351 39.9039 37.4639 39.6333 37.6898 39.4074C37.9157 39.1816 38.1862 39.0687 38.5016 39.0687C38.8169 39.0687 39.0875 39.1816 39.3134 39.4074C39.5392 39.6333 39.6522 39.9039 39.6522 40.2192C39.6522 40.428 39.5989 40.6198 39.4924 40.7945C39.3901 40.9692 39.2516 41.1099 39.0769 41.2164C38.9064 41.3187 38.7147 41.3698 38.5016 41.3698ZM46.6035 49.8457C45.6404 49.8457 44.8201 49.5836 44.1426 49.0594C43.465 48.531 42.9473 47.7661 42.5893 46.7647C42.2313 45.759 42.0524 44.5445 42.0524 43.1212C42.0524 41.7065 42.2313 40.4984 42.5893 39.4969C42.9515 38.4913 43.4714 37.7242 44.149 37.1958C44.8308 36.6631 45.649 36.3968 46.6035 36.3968C47.5581 36.3968 48.3741 36.6631 49.0517 37.1958C49.7335 37.7242 50.2534 38.4913 50.6113 39.4969C50.9735 40.4984 51.1546 41.7065 51.1546 43.1212C51.1546 44.5445 50.9757 45.759 50.6177 46.7647C50.2598 47.7661 49.742 48.531 49.0644 49.0594C48.3869 49.5836 47.5666 49.8457 46.6035 49.8457ZM46.6035 48.4394C47.5581 48.4394 48.2995 47.9792 48.8279 47.0587C49.3563 46.1383 49.6206 44.8258 49.6206 43.1212C49.6206 41.9877 49.4991 41.0225 49.2562 40.2256C49.0176 39.4288 48.6724 38.8215 48.2207 38.4039C47.7733 37.9863 47.2342 37.7775 46.6035 37.7775C45.6575 37.7775 44.9181 38.2441 44.3855 39.1773C43.8528 40.1063 43.5865 41.4209 43.5865 43.1212C43.5865 44.2547 43.7058 45.2178 43.9444 46.0104C44.1831 46.803 44.5261 47.406 44.9735 47.8194C45.4252 48.2327 45.9686 48.4394 46.6035 48.4394ZM57.8535 49.8457C56.8904 49.8457 56.0701 49.5836 55.3926 49.0594C54.715 48.531 54.1973 47.7661 53.8393 46.7647C53.4813 45.759 53.3024 44.5445 53.3024 43.1212C53.3024 41.7065 53.4813 40.4984 53.8393 39.4969C54.2015 38.4913 54.7214 37.7242 55.399 37.1958C56.0808 36.6631 56.899 36.3968 57.8535 36.3968C58.8081 36.3968 59.6241 36.6631 60.3017 37.1958C60.9835 37.7242 61.5034 38.4913 61.8613 39.4969C62.2235 40.4984 62.4046 41.7065 62.4046 43.1212C62.4046 44.5445 62.2257 45.759 61.8677 46.7647C61.5098 47.7661 60.992 48.531 60.3144 49.0594C59.6369 49.5836 58.8166 49.8457 57.8535 49.8457ZM57.8535 48.4394C58.8081 48.4394 59.5495 47.9792 60.0779 47.0587C60.6063 46.1383 60.8706 44.8258 60.8706 43.1212C60.8706 41.9877 60.7491 41.0225 60.5062 40.2256C60.2676 39.4288 59.9224 38.8215 59.4707 38.4039C59.0233 37.9863 58.4842 37.7775 57.8535 37.7775C56.9075 37.7775 56.1681 38.2441 55.6355 39.1773C55.1028 40.1063 54.8365 41.4209 54.8365 43.1212C54.8365 44.2547 54.9558 45.2178 55.1944 46.0104C55.4331 46.803 55.7761 47.406 56.2235 47.8194C56.6752 48.2327 57.2186 48.4394 57.8535 48.4394ZM65.5016 49.769C65.1862 49.769 64.9157 49.656 64.6898 49.4302C64.4639 49.2043 64.351 48.9337 64.351 48.6184C64.351 48.303 64.4639 48.0324 64.6898 47.8066C64.9157 47.5807 65.1862 47.4678 65.5016 47.4678C65.8169 47.4678 66.0875 47.5807 66.3134 47.8066C66.5392 48.0324 66.6522 48.303 66.6522 48.6184C66.6522 48.8272 66.5989 49.019 66.4924 49.1937C66.3901 49.3684 66.2516 49.509 66.0769 49.6155C65.9064 49.7178 65.7147 49.769 65.5016 49.769ZM70.791 49.7562C70.3095 49.7562 69.8993 49.6251 69.5605 49.3631C69.2218 49.0989 68.9629 48.7164 68.7839 48.2157C68.6049 47.7128 68.5154 47.1056 68.5154 46.394C68.5154 45.6866 68.6049 45.0825 68.7839 44.5818C68.965 44.079 69.225 43.6954 69.5637 43.4312C69.9046 43.1649 70.3137 43.0317 70.791 43.0317C71.2683 43.0317 71.6763 43.1649 72.0151 43.4312C72.356 43.6954 72.6159 44.079 72.7949 44.5818C72.976 45.0825 73.0666 45.6866 73.0666 46.394C73.0666 47.1056 72.9771 47.7128 72.7981 48.2157C72.6191 48.7164 72.3603 49.0989 72.0215 49.3631C71.6827 49.6251 71.2725 49.7562 70.791 49.7562ZM70.791 49.053C71.2683 49.053 71.639 48.8229 71.9032 48.3627C72.1674 47.9025 72.2995 47.2462 72.2995 46.394C72.2995 45.8272 72.2388 45.3446 72.1174 44.9462C71.998 44.5477 71.8255 44.2441 71.5996 44.0353C71.3759 43.8265 71.1063 43.7221 70.791 43.7221C70.318 43.7221 69.9483 43.9554 69.682 44.422C69.4157 44.8865 69.2825 45.5438 69.2825 46.394C69.2825 46.9607 69.3421 47.4422 69.4615 47.8386C69.5808 48.2349 69.7523 48.5364 69.976 48.743C70.2019 48.9497 70.4735 49.053 70.791 49.053ZM76.416 49.7562C75.9345 49.7562 75.5243 49.6251 75.1855 49.3631C74.8468 49.0989 74.5879 48.7164 74.4089 48.2157C74.2299 47.7128 74.1404 47.1056 74.1404 46.394C74.1404 45.6866 74.2299 45.0825 74.4089 44.5818C74.59 44.079 74.85 43.6954 75.1887 43.4312C75.5296 43.1649 75.9387 43.0317 76.416 43.0317C76.8933 43.0317 77.3013 43.1649 77.6401 43.4312C77.981 43.6954 78.2409 44.079 78.4199 44.5818C78.601 45.0825 78.6916 45.6866 78.6916 46.394C78.6916 47.1056 78.6021 47.7128 78.4231 48.2157C78.2441 48.7164 77.9853 49.0989 77.6465 49.3631C77.3077 49.6251 76.8975 49.7562 76.416 49.7562ZM76.416 49.053C76.8933 49.053 77.264 48.8229 77.5282 48.3627C77.7924 47.9025 77.9245 47.2462 77.9245 46.394C77.9245 45.8272 77.8638 45.3446 77.7424 44.9462C77.623 44.5477 77.4505 44.2441 77.2246 44.0353C77.0009 43.8265 76.7313 43.7221 76.416 43.7221C75.943 43.7221 75.5733 43.9554 75.307 44.422C75.0407 44.8865 74.9075 45.5438 74.9075 46.394C74.9075 46.9607 74.9671 47.4422 75.0865 47.8386C75.2058 48.2349 75.3773 48.5364 75.601 48.743C75.8269 48.9497 76.0985 49.053 76.416 49.053ZM25.507 71.6667V65.1212H26.2996V70.9636H29.3422V71.6667H25.507ZM31.9118 71.7817C31.6007 71.7817 31.3184 71.7231 31.0648 71.606C30.8113 71.4866 30.6099 71.3151 30.4608 71.0914C30.3116 70.8655 30.2371 70.5928 30.2371 70.2732C30.2371 69.992 30.2925 69.764 30.4033 69.5893C30.5141 69.4124 30.6621 69.2739 30.8475 69.1738C31.0329 69.0736 31.2374 68.9991 31.4611 68.9501C31.687 68.8989 31.9139 68.8584 32.1419 68.8286C32.4402 68.7903 32.682 68.7615 32.8674 68.7423C33.0549 68.721 33.1913 68.6859 33.2765 68.6368C33.3638 68.5878 33.4075 68.5026 33.4075 68.3812V68.3556C33.4075 68.0403 33.3212 67.7952 33.1487 67.6205C32.9782 67.4458 32.7193 67.3584 32.372 67.3584C32.0119 67.3584 31.7296 67.4373 31.5251 67.5949C31.3205 67.7526 31.1767 67.9209 31.0936 68.0999L30.3777 67.8442C30.5055 67.5459 30.676 67.3137 30.8891 67.1475C31.1043 66.9792 31.3386 66.862 31.5922 66.7959C31.8479 66.7278 32.0993 66.6937 32.3464 66.6937C32.5041 66.6937 32.6852 66.7128 32.8898 66.7512C33.0964 66.7874 33.2957 66.8631 33.4874 66.9781C33.6813 67.0932 33.8422 67.2668 33.97 67.4991C34.0979 67.7313 34.1618 68.0424 34.1618 68.4323V71.6667H33.4075V71.0019H33.3692C33.318 71.1084 33.2328 71.2224 33.1135 71.3439C32.9942 71.4653 32.8354 71.5687 32.6373 71.6539C32.4391 71.7391 32.1973 71.7817 31.9118 71.7817ZM32.0268 71.1042C32.3251 71.1042 32.5766 71.0456 32.7811 70.9284C32.9878 70.8112 33.1433 70.6599 33.2477 70.4746C33.3543 70.2892 33.4075 70.0942 33.4075 69.8897V69.1993C33.3756 69.2377 33.3053 69.2729 33.1966 69.3048C33.0901 69.3346 32.9665 69.3613 32.8259 69.3847C32.6874 69.406 32.5521 69.4252 32.42 69.4422C32.29 69.4572 32.1845 69.4699 32.1036 69.4806C31.9075 69.5062 31.7243 69.5477 31.5538 69.6052C31.3855 69.6606 31.2491 69.7448 31.1447 69.8577C31.0425 69.9685 30.9913 70.1198 30.9913 70.3116C30.9913 70.5736 31.0883 70.7718 31.2822 70.906C31.4782 71.0381 31.7264 71.1042 32.0268 71.1042ZM35.5385 73.5076V66.7576H36.2672V67.5374H36.3567C36.4121 67.4522 36.4888 67.3435 36.5868 67.2114C36.6869 67.0772 36.8297 66.9579 37.015 66.8535C37.2025 66.7469 37.4561 66.6937 37.7757 66.6937C38.189 66.6937 38.5534 66.797 38.8687 67.0037C39.1841 67.2104 39.4302 67.5033 39.607 67.8826C39.7839 68.2618 39.8723 68.7093 39.8723 69.2249C39.8723 69.7448 39.7839 70.1954 39.607 70.5768C39.4302 70.9561 39.1851 71.2501 38.8719 71.4589C38.5587 71.6656 38.1976 71.769 37.7885 71.769C37.4731 71.769 37.2206 71.7168 37.031 71.6123C36.8414 71.5058 36.6954 71.3854 36.5932 71.2512C36.4909 71.1148 36.4121 71.0019 36.3567 70.9124H36.2927V73.5076H35.5385ZM36.28 69.2121C36.28 69.5829 36.3343 69.9099 36.443 70.1933C36.5516 70.4746 36.7104 70.6951 36.9192 70.8549C37.128 71.0126 37.3836 71.0914 37.6862 71.0914C38.0015 71.0914 38.2647 71.0083 38.4756 70.8421C38.6887 70.6738 38.8485 70.4479 38.955 70.1645C39.0637 69.879 39.118 69.5616 39.118 69.2121C39.118 68.867 39.0648 68.5559 38.9582 68.2789C38.8538 67.9998 38.6951 67.7793 38.482 67.6173C38.2711 67.4533 38.0058 67.3712 37.6862 67.3712C37.3794 67.3712 37.1216 67.449 36.9128 67.6045C36.704 67.7579 36.5463 67.9731 36.4398 68.2501C36.3332 68.525 36.28 68.8457 36.28 69.2121ZM45.8425 65.1212V71.6667H45.0498V65.9522H45.0115L43.4135 67.0133V66.2079L45.0498 65.1212H45.8425ZM48.2874 70.8293C48.1297 70.8293 47.9944 70.7729 47.8815 70.6599C47.7686 70.547 47.7121 70.4117 47.7121 70.254C47.7121 70.0964 47.7686 69.9611 47.8815 69.8481C47.9944 69.7352 48.1297 69.6788 48.2874 69.6788C48.4451 69.6788 48.5804 69.7352 48.6933 69.8481C48.8062 69.9611 48.8627 70.0964 48.8627 70.254C48.8627 70.3584 48.8361 70.4543 48.7828 70.5417C48.7317 70.629 48.6624 70.6993 48.5751 70.7526C48.4898 70.8038 48.3939 70.8293 48.2874 70.8293ZM48.2874 67.5182C48.1297 67.5182 47.9944 67.4618 47.8815 67.3489C47.7686 67.2359 47.7121 67.1006 47.7121 66.943C47.7121 66.7853 47.7686 66.65 47.8815 66.5371C47.9944 66.4241 48.1297 66.3677 48.2874 66.3677C48.4451 66.3677 48.5804 66.4241 48.6933 66.5371C48.8062 66.65 48.8627 66.7853 48.8627 66.943C48.8627 67.0474 48.8361 67.1432 48.7828 67.2306C48.7317 67.318 48.6624 67.3883 48.5751 67.4415C48.4898 67.4927 48.3939 67.5182 48.2874 67.5182ZM54.8696 71.7562C54.3881 71.7562 53.9779 71.6251 53.6392 71.3631C53.3004 71.0989 53.0415 70.7164 52.8625 70.2157C52.6835 69.7128 52.5941 69.1056 52.5941 68.394C52.5941 67.6866 52.6835 67.0825 52.8625 66.5818C53.0436 66.079 53.3036 65.6954 53.6423 65.4312C53.9833 65.1649 54.3923 65.0317 54.8696 65.0317C55.3469 65.0317 55.7549 65.1649 56.0937 65.4312C56.4346 65.6954 56.6945 66.079 56.8735 66.5818C57.0546 67.0825 57.1452 67.6866 57.1452 68.394C57.1452 69.1056 57.0557 69.7128 56.8767 70.2157C56.6977 70.7164 56.4389 71.0989 56.1001 71.3631C55.7613 71.6251 55.3512 71.7562 54.8696 71.7562ZM54.8696 71.053C55.3469 71.053 55.7176 70.8229 55.9818 70.3627C56.246 69.9025 56.3781 69.2462 56.3781 68.394C56.3781 67.8272 56.3174 67.3446 56.196 66.9462C56.0767 66.5477 55.9041 66.2441 55.6782 66.0353C55.4545 65.8265 55.185 65.7221 54.8696 65.7221C54.3966 65.7221 54.0269 65.9554 53.7606 66.422C53.4943 66.8865 53.3611 67.5438 53.3611 68.394C53.3611 68.9607 53.4208 69.4422 53.5401 69.8386C53.6594 70.2349 53.8309 70.5364 54.0546 70.743C54.2805 70.9497 54.5521 71.053 54.8696 71.053ZM58.9222 70.8293C58.7645 70.8293 58.6292 70.7729 58.5163 70.6599C58.4034 70.547 58.3469 70.4117 58.3469 70.254C58.3469 70.0964 58.4034 69.9611 58.5163 69.8481C58.6292 69.7352 58.7645 69.6788 58.9222 69.6788C59.0798 69.6788 59.2151 69.7352 59.3281 69.8481C59.441 69.9611 59.4975 70.0964 59.4975 70.254C59.4975 70.3584 59.4708 70.4543 59.4176 70.5417C59.3664 70.629 59.2972 70.6993 59.2098 70.7526C59.1246 70.8038 59.0287 70.8293 58.9222 70.8293ZM58.9222 67.5182C58.7645 67.5182 58.6292 67.4618 58.5163 67.3489C58.4034 67.2359 58.3469 67.1006 58.3469 66.943C58.3469 66.7853 58.4034 66.65 58.5163 66.5371C58.6292 66.4241 58.7645 66.3677 58.9222 66.3677C59.0798 66.3677 59.2151 66.4241 59.3281 66.5371C59.441 66.65 59.4975 66.7853 59.4975 66.943C59.4975 67.0474 59.4708 67.1432 59.4176 67.2306C59.3664 67.318 59.2972 67.3883 59.2098 67.4415C59.1246 67.4927 59.0287 67.5182 58.9222 67.5182ZM62.9731 71.7562C62.4916 71.7562 62.0814 71.6251 61.7427 71.3631C61.4039 71.0989 61.145 70.7164 60.966 70.2157C60.7871 69.7128 60.6976 69.1056 60.6976 68.394C60.6976 67.6866 60.7871 67.0825 60.966 66.5818C61.1471 66.079 61.4071 65.6954 61.7459 65.4312C62.0868 65.1649 62.4959 65.0317 62.9731 65.0317C63.4504 65.0317 63.8584 65.1649 64.1972 65.4312C64.5381 65.6954 64.7981 66.079 64.977 66.5818C65.1581 67.0825 65.2487 67.6866 65.2487 68.394C65.2487 69.1056 65.1592 69.7128 64.9802 70.2157C64.8013 70.7164 64.5424 71.0989 64.2036 71.3631C63.8648 71.6251 63.4547 71.7562 62.9731 71.7562ZM62.9731 71.053C63.4504 71.053 63.8211 70.8229 64.0854 70.3627C64.3496 69.9025 64.4817 69.2462 64.4817 68.394C64.4817 67.8272 64.4209 67.3446 64.2995 66.9462C64.1802 66.5477 64.0076 66.2441 63.7817 66.0353C63.558 65.8265 63.2885 65.7221 62.9731 65.7221C62.5001 65.7221 62.1305 65.9554 61.8641 66.422C61.5978 66.8865 61.4646 67.5438 61.4646 68.394C61.4646 68.9607 61.5243 69.4422 61.6436 69.8386C61.7629 70.2349 61.9344 70.5364 62.1581 70.743C62.384 70.9497 62.6557 71.053 62.9731 71.053ZM68.5981 71.7562C68.1166 71.7562 67.7064 71.6251 67.3677 71.3631C67.0289 71.0989 66.77 70.7164 66.591 70.2157C66.4121 69.7128 66.3226 69.1056 66.3226 68.394C66.3226 67.6866 66.4121 67.0825 66.591 66.5818C66.7721 66.079 67.0321 65.6954 67.3709 65.4312C67.7118 65.1649 68.1209 65.0317 68.5981 65.0317C69.0754 65.0317 69.4834 65.1649 69.8222 65.4312C70.1631 65.6954 70.4231 66.079 70.602 66.5818C70.7831 67.0825 70.8737 67.6866 70.8737 68.394C70.8737 69.1056 70.7842 69.7128 70.6052 70.2157C70.4263 70.7164 70.1674 71.0989 69.8286 71.3631C69.4898 71.6251 69.0797 71.7562 68.5981 71.7562ZM68.5981 71.053C69.0754 71.053 69.4461 70.8229 69.7104 70.3627C69.9746 69.9025 70.1067 69.2462 70.1067 68.394C70.1067 67.8272 70.0459 67.3446 69.9245 66.9462C69.8052 66.5477 69.6326 66.2441 69.4067 66.0353C69.183 65.8265 68.9135 65.7221 68.5981 65.7221C68.1251 65.7221 67.7555 65.9554 67.4891 66.422C67.2228 66.8865 67.0896 67.5438 67.0896 68.394C67.0896 68.9607 67.1493 69.4422 67.2686 69.8386C67.3879 70.2349 67.5594 70.5364 67.7831 70.743C68.009 70.9497 68.2807 71.053 68.5981 71.053ZM72.4222 71.7178C72.2645 71.7178 72.1292 71.6614 72.0163 71.5484C71.9034 71.4355 71.8469 71.3002 71.8469 71.1425C71.8469 70.9849 71.9034 70.8496 72.0163 70.7366C72.1292 70.6237 72.2645 70.5672 72.4222 70.5672C72.5798 70.5672 72.7151 70.6237 72.8281 70.7366C72.941 70.8496 72.9975 70.9849 72.9975 71.1425C72.9975 71.2469 72.9708 71.3428 72.9176 71.4302C72.8664 71.5175 72.7972 71.5878 72.7098 71.6411C72.6246 71.6922 72.5287 71.7178 72.4222 71.7178ZM75.0669 71.7114C74.8261 71.7114 74.621 71.6459 74.4517 71.5149C74.2823 71.3828 74.1528 71.1915 74.0633 70.9412C73.9738 70.6898 73.9291 70.3861 73.9291 70.0303C73.9291 69.6766 73.9738 69.3746 74.0633 69.1242C74.1539 68.8728 74.2839 68.6811 74.4532 68.549C74.6237 68.4158 74.8282 68.3492 75.0669 68.3492C75.3055 68.3492 75.5095 68.4158 75.6789 68.549C75.8494 68.6811 75.9793 68.8728 76.0688 69.1242C76.1594 69.3746 76.2047 69.6766 76.2047 70.0303C76.2047 70.3861 76.1599 70.6898 76.0704 70.9412C75.9809 71.1915 75.8515 71.3828 75.6821 71.5149C75.5127 71.6459 75.3077 71.7114 75.0669 71.7114ZM75.0669 71.3599C75.3055 71.3599 75.4909 71.2448 75.623 71.0147C75.7551 70.7846 75.8211 70.4565 75.8211 70.0303C75.8211 69.7469 75.7908 69.5056 75.7301 69.3064C75.6704 69.1072 75.5841 68.9554 75.4712 68.851C75.3593 68.7466 75.2246 68.6944 75.0669 68.6944C74.8304 68.6944 74.6455 68.811 74.5124 69.0443C74.3792 69.2766 74.3126 69.6052 74.3126 70.0303C74.3126 70.3137 74.3425 70.5545 74.4021 70.7526C74.4618 70.9508 74.5475 71.1015 74.6594 71.2049C74.7723 71.3082 74.9081 71.3599 75.0669 71.3599ZM77.8794 71.7114C77.6386 71.7114 77.4335 71.6459 77.2642 71.5149C77.0948 71.3828 76.9653 71.1915 76.8758 70.9412C76.7863 70.6898 76.7416 70.3861 76.7416 70.0303C76.7416 69.6766 76.7863 69.3746 76.8758 69.1242C76.9664 68.8728 77.0964 68.6811 77.2657 68.549C77.4362 68.4158 77.6407 68.3492 77.8794 68.3492C78.118 68.3492 78.322 68.4158 78.4914 68.549C78.6619 68.6811 78.7918 68.8728 78.8813 69.1242C78.9719 69.3746 79.0172 69.6766 79.0172 70.0303C79.0172 70.3861 78.9724 70.6898 78.8829 70.9412C78.7934 71.1915 78.664 71.3828 78.4946 71.5149C78.3252 71.6459 78.1202 71.7114 77.8794 71.7114ZM77.8794 71.3599C78.118 71.3599 78.3034 71.2448 78.4355 71.0147C78.5676 70.7846 78.6336 70.4565 78.6336 70.0303C78.6336 69.7469 78.6033 69.5056 78.5426 69.3064C78.4829 69.1072 78.3966 68.9554 78.2837 68.851C78.1718 68.7466 78.0371 68.6944 77.8794 68.6944C77.6429 68.6944 77.458 68.811 77.3249 69.0443C77.1917 69.2766 77.1251 69.6052 77.1251 70.0303C77.1251 70.3137 77.155 70.5545 77.2146 70.7526C77.2743 70.9508 77.36 71.1015 77.4719 71.2049C77.5848 71.3082 77.7206 71.3599 77.8794 71.3599Z" fill="#424040"/>
</svg>
